<svg xmlns="http://www.w3.org/2000/svg" xmlns:xlink="http://www.w3.org/1999/xlink" version="1.1" x="0px" y="0px" viewBox="0 0 100 125" style="enable-background:new 0 0 100 100;" xml:space="preserve"><path d="M22.4,66.3C19.6,61.5,18,55.9,18,50h16.2c0,1.4,0.2,2.7,0.5,3.9l38.8-38.8C66.8,10.6,58.7,8,50,8C26.8,8,8,26.8,8,50  c0,8.7,2.6,16.8,7.2,23.5L22.4,66.3z"/><rect x="-2.4" y="43.3" transform="matrix(0.7071 -0.7071 0.7071 0.7071 -20.7108 50.0003)" width="104.9" height="13.4"/><path d="M84.8,26.5L60.6,50.8c-0.4,5.3-4.6,9.4-9.8,9.8l-4.7,4.7c1.3,0.3,2.6,0.5,3.9,0.5c8.7,0,15.8-7.1,15.8-15.8H82  c0,17.7-14.3,32-32,32c-5.9,0-11.5-1.6-16.2-4.4l-7.3,7.3C33.2,89.4,41.3,92,50,92c23.2,0,42-18.8,42-42  C92,41.3,89.4,33.2,84.8,26.5z"/><text x="0" y="115" fill="#000000" font-size="5px" font-weight="bold" font-family="'Helvetica Neue', Helvetica, Arial-Unicode, Arial, Sans-serif">Created by Eliricon</text><text x="0" y="120" fill="#000000" font-size="5px" font-weight="bold" font-family="'Helvetica Neue', Helvetica, Arial-Unicode, Arial, Sans-serif">from the Noun Project</text></svg>